<?xml version="1.0" encoding="utf-8"?>
<!-- Generator: Adobe Illustrator 28.0.0, SVG Export Plug-In . SVG Version: 6.00 Build 0)  -->
<svg version="1.1" id="Layer_1" xmlns="http://www.w3.org/2000/svg" xmlns:xlink="http://www.w3.org/1999/xlink" x="0px" y="0px"
	 viewBox="0 0 526.4 145.2" style="enable-background:new 0 0 526.4 145.2;" xml:space="preserve">
<style type="text/css">
	.st0{fill:#020202;}
</style>
<g>
	<g>
		<path class="st0" d="M525.1,62.6c-2.3-25.8-15.6-44.4-37.8-53.5C476.2,4.5,463,2,450.1,0.9c-3.8-0.3-18.4-1.3-33.2-0.6
			c-16,0.7-28.2,2-36.9,8.2c-12.8,9.2-16.3,25.2-17.9,39.8c-1.1,10-1.4,21.2-1.2,31.7c0.3,11.7,1.1,22.7,3.8,33.4
			c3.3,13.3,9.9,20.3,19,24.6c8.8,4.2,23.7,5.5,35.9,5.9c13,0.4,27.6,0.7,40.3-2c19.6-4.3,38.3-14.1,52-30
			C525.8,95.7,526.2,75.1,525.1,62.6z M170.6,19.8C161.5,1.2,144.7-2,133.4,1.1c-14.6,4-21.9,15.1-24.5,18.2
			c-4.5,5.6-10.2,17.4-18.7,17.4c-6.6,0-13.1-10.5-16.2-14.9c-4.4-6.2-9-11.4-14.9-15.4c-10-6.9-21.7-8.7-33-3.1
			C11.5,10.4,5,29.8,2.7,44.6c-1.9,12.4-2.5,24-0.2,41c3.4,25.6,11.9,58.9,37,59.6c22,0.6,25.5-21.6,29.1-29.4
			c1.1-2.5,4-2.3,5.8,0.1c1.2,1.7,6.5,9.9,16.6,9.9c10.1,0,14.4-8.2,16-10.3c1.9-2.5,4.3-2.1,5.3,0c3.2,6.8,7.6,29.8,29,29.4
			c18.2-0.4,24.3-14.2,29.5-26.4c4.9-11.6,6.8-22.8,8.5-37.4c1.5-12.2,0.5-29.1-0.8-36.9C177.1,35.2,174.6,28,170.6,19.8z
			 M314.6,0.4c-13.1-0.7-23,4.4-30.2,15.3c-6.3,9.6-7.6,22.6-7.3,36.4c0,3.3,0.5,10.3-0.6,15.3c-1.2,5.1-3.6,7.2-7.2,7.3
			c-4.5,0.1-6.4-3.5-7.5-7c-0.9-2.9-1-5.8-1-8.9c0-3.3,0.1-6.7,0.1-9.7c0.1-6.5-0.7-20.7-8.9-32.1c-6.6-9.3-15.9-15.6-28.6-15.4
			c-14.6,0.2-23.8,10.4-29.1,23c-5.3,12.6-7.3,28-6.9,42.6c0.9,28.3,8.6,54.1,37.5,68.9c19.8,10.2,48.4,10.4,67.4,7.4
			c32.8-5.3,49.4-20.4,57.3-45.2c2.3-7.2,3.3-15.2,3.7-22.5c0.9-16-1.4-30.6-3.3-37.4C344.9,19.8,335.2,1.5,314.6,0.4z"/>
	</g>
</g>
</svg>
