<svg width="149" height="42" viewBox="0 0 149 42" fill="none" xmlns="http://www.w3.org/2000/svg">
<path d="M127.295 2.62458C127.958 2.68441 128.618 2.7562 129.279 2.83995C129.518 2.87106 129.341 2.84713 129.291 2.83995C129.382 2.85192 129.475 2.86628 129.566 2.87824C129.731 2.90217 129.896 2.9261 130.059 2.95242C130.387 3.00268 130.715 3.05772 131.043 3.11754C132.328 3.34966 133.601 3.64161 134.85 4.02209C135.453 4.20635 136.049 4.40976 136.637 4.63949C136.779 4.69453 136.92 4.75196 137.059 4.80939C137.212 4.87161 136.853 4.72085 137.006 4.78546C137.071 4.81418 137.133 4.8405 137.197 4.86921C137.425 4.96972 137.65 5.07501 137.872 5.18509C138.736 5.61104 139.569 6.104 140.349 6.67114C140.433 6.73336 140.516 6.79558 140.6 6.85779C140.813 7.01573 140.44 6.72857 140.576 6.83865C140.617 6.87215 140.658 6.90326 140.698 6.93676C140.89 7.08992 141.079 7.25025 141.265 7.41297C141.612 7.71927 141.947 8.04233 142.266 8.37974C142.416 8.53768 142.562 8.7004 142.704 8.86552C142.763 8.93492 143.192 9.35608 143.168 9.43027C143.168 9.42548 142.988 9.19336 143.122 9.37044C143.154 9.41112 143.185 9.4518 143.216 9.49488C143.285 9.5882 143.352 9.68153 143.419 9.77725C143.56 9.97826 143.699 10.1817 143.831 10.3875C144.084 10.7823 144.316 11.1891 144.534 11.6079C144.637 11.8065 144.738 12.0075 144.831 12.2109C144.881 12.3186 144.931 12.4287 144.979 12.5364C145.001 12.5842 145.02 12.6369 145.044 12.6824C144.896 12.388 145.022 12.6297 145.046 12.6919C145.42 13.6108 145.714 14.5609 145.932 15.53C146.047 16.0373 146.142 16.547 146.219 17.0615C146.229 17.119 146.236 17.1788 146.245 17.2362C146.26 17.3272 146.224 17.4133 146.238 17.1812C146.231 17.3056 146.272 17.4564 146.286 17.5808C146.312 17.8249 146.336 18.0714 146.355 18.3179C146.42 19.1387 146.449 19.9642 146.434 20.7898C146.427 21.2421 146.406 21.692 146.37 22.1419C146.351 22.3692 146.329 22.5965 146.305 22.8239C146.298 22.8909 146.288 22.9603 146.281 23.0273C146.276 23.0727 146.255 23.2546 146.276 23.0727C146.3 22.8622 146.267 23.1374 146.264 23.1613C146.255 23.2307 146.243 23.3001 146.233 23.3671C146.071 24.4009 145.822 25.4203 145.477 26.4062C145.391 26.6503 145.3 26.8896 145.204 27.1289C145.123 27.3323 145.204 27.1337 145.219 27.0978C145.192 27.1696 145.156 27.239 145.125 27.3084C145.063 27.4495 144.996 27.5907 144.929 27.7295C144.68 28.244 144.4 28.7441 144.092 29.2227C143.941 29.4573 143.785 29.687 143.62 29.9095C143.582 29.9622 143.541 30.0148 143.5 30.0699C143.309 30.3283 143.601 29.9526 143.474 30.1058C143.366 30.235 143.261 30.369 143.151 30.4982C142.768 30.9481 142.364 31.3812 141.945 31.8C141.526 32.2188 141.1 32.6112 140.658 32.9941C140.449 33.1736 140.236 33.3483 140.023 33.5206C139.968 33.566 139.679 33.7886 139.885 33.633C139.743 33.7407 139.602 33.8484 139.459 33.9513C138.54 34.6237 137.573 35.234 136.573 35.7748C136.068 36.0476 135.551 36.3036 135.029 36.5453C134.898 36.6051 134.768 36.6626 134.637 36.7224C134.563 36.7535 134.491 36.7846 134.417 36.8181C134.455 36.8014 134.644 36.7248 134.438 36.8085C134.173 36.9186 133.907 37.0239 133.639 37.1268C132.572 37.5312 131.476 37.8686 130.368 38.1391C129.781 38.2826 129.19 38.4071 128.595 38.5052C128.437 38.5315 128.279 38.5554 128.121 38.5794C128.058 38.5889 127.822 38.6224 128.068 38.5889C127.996 38.5985 127.927 38.6081 127.855 38.6153C127.534 38.6559 127.211 38.6894 126.888 38.7182C125.579 38.8378 124.266 38.8809 122.952 38.8833C120.482 38.8905 117.996 38.833 115.538 38.5961C115.256 38.5698 114.971 38.5387 114.689 38.5052C114.54 38.4884 114.39 38.4741 114.244 38.4501C114.5 38.4932 114.323 38.4597 114.268 38.4525C114.17 38.4382 114.071 38.4238 113.976 38.4095C113.409 38.3233 112.844 38.2228 112.284 38.0984C111.767 37.9835 111.255 37.8471 110.752 37.682C110.535 37.6102 110.319 37.5241 110.104 37.4427C109.941 37.3829 110.377 37.5671 110.14 37.4571C110.094 37.4355 110.046 37.4164 110.001 37.3948C109.891 37.3422 109.781 37.2895 109.671 37.2345C109.283 37.0383 108.91 36.8157 108.553 36.5693C108.474 36.5142 108.398 36.4568 108.321 36.4017C108.158 36.2845 108.378 36.4424 108.393 36.4568C108.359 36.4137 108.295 36.3802 108.254 36.3443C108.077 36.1983 107.907 36.0476 107.742 35.8872C107.594 35.7413 107.45 35.5905 107.314 35.435C107.239 35.3512 107.17 35.2651 107.098 35.1789C106.998 35.0593 107.141 35.1574 107.146 35.2435C107.146 35.2124 107.029 35.0856 107.01 35.0593C106.73 34.6716 106.483 34.2624 106.268 33.8364C106.218 33.7359 106.167 33.6354 106.119 33.5349C106.096 33.4823 106.072 33.432 106.048 33.3794C106.04 33.365 105.928 33.1042 106.005 33.2837C106.069 33.4392 105.997 33.2621 105.981 33.2238C105.952 33.1544 105.926 33.085 105.899 33.0156C105.844 32.8721 105.794 32.7285 105.744 32.5849C105.55 32.0106 105.399 31.4243 105.265 30.8356C105.122 30.2015 105.002 29.5602 104.901 28.9164C104.88 28.7729 104.858 28.6293 104.837 28.4857C104.827 28.4139 104.815 28.3421 104.806 28.2703C104.837 28.4977 104.81 28.3086 104.806 28.2632C104.763 27.8994 104.72 27.5357 104.684 27.1696C104.423 24.5014 104.373 21.8021 104.444 19.1219C104.48 17.7866 104.552 16.4489 104.674 15.1184C104.727 14.5441 104.789 13.9698 104.861 13.3979C104.866 13.3548 104.892 13.1633 104.868 13.3404C104.842 13.5462 104.88 13.2591 104.882 13.2399C104.899 13.1251 104.916 13.0102 104.933 12.8929C104.973 12.6177 105.019 12.3449 105.069 12.0721C105.256 11.036 105.502 10.0094 105.851 9.01628C105.933 8.78416 106.021 8.55443 106.112 8.3247C106.196 8.11651 106.112 8.35103 106.093 8.37017C106.119 8.34145 106.146 8.25291 106.163 8.21223C106.222 8.08062 106.282 7.949 106.344 7.81978C106.572 7.35554 106.828 6.90565 107.115 6.47492C107.196 6.35527 107.278 6.23801 107.364 6.12314C107.39 6.08725 107.457 6.02264 107.467 5.98435C107.457 6.01307 107.299 6.19254 107.44 6.02264C107.608 5.82163 107.778 5.62301 107.957 5.43396C108.137 5.24491 108.333 5.06065 108.532 4.88597C108.623 4.807 108.713 4.73281 108.804 4.65624C109.029 4.46719 108.661 4.75674 108.812 4.64906C108.874 4.60359 108.934 4.55812 108.996 4.51505C109.362 4.25421 109.75 4.02688 110.154 3.83065C110.257 3.7804 110.362 3.73254 110.465 3.68468C110.69 3.58178 110.429 3.70382 110.427 3.69904C110.427 3.69904 110.582 3.63682 110.57 3.64161C110.791 3.55546 111.016 3.47649 111.243 3.40231C111.719 3.24916 112.202 3.12472 112.693 3.02421C112.951 2.96917 113.21 2.92131 113.471 2.87824C113.59 2.8591 113.708 2.83995 113.827 2.82081C113.887 2.81124 113.947 2.80166 114.009 2.79449C114.069 2.78491 114.131 2.77773 114.191 2.76816L114.057 2.78731C114.167 2.73705 114.361 2.74902 114.478 2.73466C114.622 2.71791 114.765 2.70355 114.909 2.6868C115.206 2.65569 115.5 2.62937 115.797 2.60544C116.424 2.55519 117.053 2.5169 117.68 2.48579C120.221 2.35896 122.77 2.37332 125.311 2.50015C125.974 2.53365 126.637 2.57194 127.3 2.62937C127.924 2.68441 128.523 2.04069 128.496 1.43287C128.465 0.738901 127.97 0.293804 127.3 0.236372C125.35 0.0664692 123.385 0.0114302 121.427 0.00425126C118.711 -0.00292774 115.969 0.0999711 113.277 0.497209C111.229 0.801119 109.156 1.3898 107.491 2.66526C105.571 4.13217 104.308 6.15425 103.523 8.41803C102.767 10.6004 102.468 12.9312 102.264 15.2213C102.018 17.9948 101.972 20.7874 102.063 23.5705C102.154 26.3535 102.391 29.1701 103.052 31.8909C103.573 34.0375 104.516 36.1433 106.148 37.6772C107.677 39.1154 109.613 39.9529 111.645 40.4052C114.095 40.9508 116.634 41.1279 119.137 41.2069C121.827 41.2906 124.529 41.3529 127.211 41.0777C129.726 40.8216 132.186 40.2473 134.541 39.3284C136.817 38.4382 138.985 37.2895 140.938 35.8155C142.89 34.3414 144.898 32.4533 146.262 30.2685C148.499 26.679 149.098 22.2902 148.739 18.136C148.38 13.9817 146.882 9.73178 143.883 6.60414C140.61 3.18933 136.034 1.56927 131.468 0.774796C130.088 0.535497 128.697 0.360808 127.302 0.236372C126.678 0.181333 126.079 0.827442 126.106 1.43287C126.137 2.12923 126.632 2.56954 127.302 2.62937L127.295 2.62458Z" fill="black"/>
<path d="M50.3837 12.7692C50.0607 10.7734 49.46 8.87576 48.6464 7.02837C47.9165 5.3772 47.0168 3.80261 45.6743 2.56782C43.511 0.57924 40.6275 -0.287024 37.7295 0.122178C34.8292 0.531381 32.2233 2.33809 30.3878 4.56119C30.2442 4.73588 30.1031 4.91296 29.9667 5.09243C29.8614 5.22883 29.7561 5.36524 29.6484 5.50403C29.5216 5.66915 29.7704 5.34848 29.7417 5.38438C29.7154 5.41549 29.6915 5.44899 29.6675 5.4801C29.2464 6.01374 28.8563 6.56413 28.471 7.12409C28.2676 7.41843 28.0642 7.71277 27.8512 8.00232C27.8177 8.04778 27.7436 8.19615 27.6885 8.22008C27.7029 8.2129 27.868 7.99514 27.7316 8.16265C27.7077 8.19376 27.6837 8.22487 27.6598 8.25358C27.5378 8.40434 27.4133 8.55271 27.2841 8.69868C27.0496 8.95952 26.7983 9.19882 26.5327 9.42854C26.37 9.56973 26.7241 9.29693 26.5471 9.41658C26.4777 9.46205 26.4131 9.50991 26.3413 9.55537C26.1977 9.64631 26.0206 9.70374 25.8866 9.79946C25.8866 9.79946 26.1307 9.7157 26.0158 9.74203C25.9727 9.7516 25.9297 9.77314 25.889 9.7851C25.8244 9.80664 25.7598 9.82339 25.6952 9.84014C25.6521 9.84971 25.6066 9.8545 25.5635 9.86886C25.4487 9.90475 25.7143 9.84971 25.7143 9.84971C25.6282 9.83775 25.5276 9.86646 25.4415 9.86407C25.3889 9.86407 25.1184 9.83775 25.3482 9.86407C25.5779 9.89039 25.3051 9.84732 25.2548 9.83296C25.1902 9.81621 25.1304 9.79228 25.0682 9.77074C24.8863 9.71092 25.1543 9.79946 25.1687 9.81382C25.1448 9.78749 25.0778 9.76835 25.0467 9.75399C24.8983 9.67742 24.7571 9.58888 24.6207 9.49076C24.5896 9.46923 24.5609 9.4453 24.5322 9.42615C24.4293 9.35436 24.6279 9.49316 24.6255 9.49794C24.6279 9.49076 24.4125 9.31847 24.391 9.29932C24.1038 9.04088 23.8382 8.7585 23.5869 8.46417C23.4721 8.33016 23.3644 8.19376 23.2543 8.05736C23.1203 7.89224 23.3859 8.23205 23.2232 8.01668C23.161 7.93292 23.0988 7.85156 23.0365 7.7678C22.8379 7.4974 22.6465 7.22459 22.455 6.9494C21.9525 6.22911 21.4237 5.52317 20.8637 4.84596C19.6217 3.34794 18.1285 1.9959 16.3792 1.11767C14.4553 0.15568 12.3686 -0.215234 10.246 0.122178C8.40575 0.414124 6.67322 1.30671 5.32357 2.58218C4.16536 3.67578 3.26081 5.05415 2.5812 6.48755C1.1789 9.45008 0.559114 12.6854 0.279134 15.9327C-0.0271701 19.4887 0.310242 23.0519 0.896527 26.5624C1.39188 29.5201 2.11935 32.4683 3.40439 35.1892C4.59849 37.7186 6.43153 40.0087 9.1069 41.0305C11.8038 42.0595 15.0774 41.5115 17.1833 39.5205C18.844 37.9507 19.6217 35.7731 20.3707 33.6744C20.4354 33.4925 20.5 33.3107 20.5718 33.1312C20.6005 33.057 20.6316 32.9828 20.6627 32.9086C20.5024 33.325 20.5598 33.1431 20.6029 33.0522C20.6172 33.0259 20.6292 32.9972 20.6411 32.9685C20.6531 32.9445 20.6651 32.9206 20.6818 32.8967C20.7177 32.8416 20.7082 32.8512 20.6555 32.9254C20.6579 32.9732 20.5789 33.0211 20.6603 32.9373C20.5741 33.0235 20.4808 33.0761 20.366 33.1096C20.4162 33.0953 20.5143 33.0833 20.3348 33.1025C20.0692 33.1288 20.476 33.1479 20.2176 33.1001C20.0285 33.0642 20.1554 33.0953 20.1961 33.1025C20.2846 33.1192 20.2726 33.0857 20.1889 33.0953L20.1147 33.0666C20.2008 33.1216 20.2032 33.1192 20.1243 33.0594C20.0573 33.0044 20.0501 32.9972 20.0979 33.0426C20.1195 33.0618 20.141 33.0809 20.1602 33.1025C20.2798 33.1862 20.0644 32.9565 20.141 33.0642C20.1578 33.0881 20.1745 33.112 20.1913 33.136C20.2391 33.203 20.2846 33.2676 20.3325 33.3346C21.158 34.4521 22.1583 35.3471 23.4529 35.8855C25.0658 36.5556 27.0376 36.4239 28.5285 35.505C29.5503 34.8757 30.249 33.9687 30.9215 32.9996C31.0052 32.8775 30.864 33.0953 30.8473 33.0977C30.8928 33.0929 30.931 32.9661 30.9813 32.9613C30.9909 32.9613 30.7875 33.0785 30.9095 33.0211C31.0315 32.9637 30.7899 33.0594 30.7946 33.057C30.9885 33.002 30.6941 33.057 30.675 33.057C30.7348 33.057 30.809 33.0809 30.6415 33.045C30.5793 33.0307 30.2801 32.8823 30.4333 32.9876C30.4429 32.9948 30.2251 32.8153 30.3184 32.9038C30.4213 33.002 30.2107 32.6909 30.2634 32.8297C30.2825 32.8775 30.3136 32.923 30.3376 32.9709C30.3519 33.002 30.3663 33.0355 30.3806 33.069C30.4477 33.2125 30.2419 32.7292 30.3232 32.9326C30.4596 33.2819 30.5888 33.6337 30.7157 33.9879C31.0866 35.0073 31.4862 36.0243 32.0055 36.9767C32.5774 38.0249 33.3169 39.0395 34.2549 39.7885C35.449 40.7409 36.7987 41.2793 38.3206 41.4253C39.9837 41.5856 41.7498 41.2434 43.2143 40.4394C44.5304 39.7167 45.5666 38.5896 46.3754 37.3405C47.1005 36.2205 47.6342 34.9881 48.1534 33.7605C48.8737 32.0615 49.4217 30.3194 49.795 28.5127C50.5632 24.8059 50.9365 21.0274 50.7881 17.2441C50.7283 15.7484 50.6158 14.248 50.3813 12.7692C50.2832 12.1494 49.4768 11.7498 48.9096 11.934C48.2372 12.1518 47.9692 12.7405 48.0745 13.4057C48.0936 13.5325 48.1128 13.6594 48.1319 13.7862C48.1534 13.9346 48.096 13.5062 48.1152 13.6594C48.1199 13.6929 48.1247 13.724 48.1271 13.7575C48.1391 13.8484 48.1487 13.9393 48.1606 14.0303C48.1989 14.3701 48.2324 14.7099 48.2611 15.0497C48.3305 15.8585 48.376 16.6674 48.4047 17.4786C48.4669 19.2255 48.4574 20.9867 48.2707 22.7264C48.2204 23.1955 48.1606 23.6621 48.0984 24.1311C48.0817 24.2556 48.0649 24.38 48.0505 24.5068C48.0314 24.648 48.0553 24.4709 48.0577 24.4542C48.0481 24.5236 48.0386 24.593 48.029 24.6648C47.9955 24.9065 47.962 25.1457 47.9261 25.3874C47.7921 26.2848 47.6389 27.1798 47.4499 28.0676C47.2609 28.9554 47.0575 29.7547 46.799 30.5802C46.6674 31.0014 46.5262 31.4178 46.3731 31.8294C46.3013 32.0232 46.2247 32.2171 46.1481 32.4085C46.1146 32.4946 46.0117 32.7411 46.1026 32.5234C46.0667 32.6095 46.0309 32.6933 45.995 32.7794C45.4853 33.9735 44.954 35.17 44.2337 36.2517C44.15 36.3785 44.0614 36.5053 43.9705 36.6274C43.9489 36.6561 43.9274 36.6848 43.9083 36.7135C43.7934 36.8738 43.9537 36.6537 43.9681 36.6393C43.9035 36.7039 43.8508 36.7877 43.791 36.8571C43.59 37.0988 43.3722 37.3309 43.1449 37.5487C43.0348 37.6539 42.92 37.7545 42.8027 37.8526C42.7788 37.8717 42.7142 37.9124 42.6926 37.9411C42.6902 37.9459 42.8984 37.788 42.7955 37.8621C42.7189 37.9172 42.6424 37.9746 42.5634 38.0296C42.293 38.2163 42.0106 38.3814 41.7139 38.5226C41.6612 38.5489 41.4076 38.6255 41.5847 38.5872C41.7689 38.5465 41.4913 38.6231 41.4435 38.6399C41.2712 38.7045 41.0989 38.7619 40.9218 38.8098C40.7447 38.8576 40.5796 38.9007 40.4073 38.9366C40.3116 38.9557 40.2135 38.9749 40.1178 38.9916C40.0747 38.9988 40.034 39.0036 39.9909 39.0108C39.8258 39.0395 40.2972 38.9797 40.0053 39.0084C39.6104 39.0467 39.218 39.0706 38.8208 39.061C38.6532 39.0562 38.4881 39.0467 38.323 39.0299C38.2943 39.0275 38.2105 39.006 38.1746 39.0132C38.1675 39.0132 38.4403 39.0539 38.311 39.0323C38.2153 39.0156 38.122 39.0036 38.0263 38.9845C37.7224 38.927 37.4232 38.8457 37.1313 38.7428C37.0595 38.7164 36.9877 38.6853 36.9159 38.6614C36.7963 38.6231 37.0619 38.726 37.0499 38.7188C37.014 38.6973 36.9686 38.6829 36.9327 38.6662C36.7963 38.604 36.6647 38.537 36.533 38.4628C36.4134 38.3958 36.2985 38.3264 36.1837 38.2522C36.1238 38.2115 36.064 38.1708 36.0042 38.1302C35.9252 38.0751 35.7146 37.8861 35.9994 38.1325C35.7912 37.9531 35.5806 37.7808 35.3844 37.5869C35.1882 37.3931 35.0087 37.1706 34.8244 36.9576C34.7742 36.9002 34.9991 37.1921 34.8651 37.0102C34.8244 36.9552 34.7814 36.8978 34.7407 36.8427C34.6593 36.7303 34.5828 36.6154 34.5062 36.5005C34.2118 36.0482 33.9534 35.5696 33.7237 35.0815C33.671 34.9714 33.6208 34.8613 33.5729 34.7512C33.5514 34.701 33.5274 34.6507 33.5059 34.6005C33.4915 34.567 33.4772 34.5335 33.4628 34.5C33.4054 34.3708 33.5729 34.768 33.5203 34.6364C33.4293 34.4114 33.3384 34.1865 33.2499 33.9592C33.1015 33.5691 32.9603 33.1743 32.8167 32.7818C32.6731 32.3894 32.532 31.9203 32.2903 31.559C31.5365 30.4367 30.0432 30.4175 29.1554 31.4034C28.9784 31.5997 28.83 31.8222 28.6792 32.04C28.6266 32.1166 28.5739 32.1907 28.5213 32.2649C28.4902 32.3104 28.4567 32.3535 28.4256 32.3989C28.4112 32.4181 28.3945 32.4372 28.3801 32.4588C28.3035 32.5688 28.562 32.2314 28.4734 32.3391C28.3011 32.5425 28.136 32.7483 27.9446 32.935C27.8489 33.0307 27.7484 33.124 27.6431 33.2102C27.612 33.2365 27.5665 33.2628 27.5426 33.2939C27.5354 33.3011 27.7579 33.1384 27.655 33.2078C27.5808 33.258 27.5091 33.3131 27.4349 33.3633C27.308 33.4471 27.1764 33.5236 27.0424 33.593C26.9778 33.6265 26.9132 33.6576 26.8462 33.6888C26.6548 33.7821 26.9156 33.6481 26.9276 33.6552C26.9132 33.6481 26.8031 33.7007 26.7864 33.7079C26.626 33.7653 26.4609 33.8108 26.2934 33.8467C26.2097 33.8658 26.0876 33.8658 26.0086 33.8993C26.0134 33.8993 26.2527 33.8754 26.1139 33.8826C26.0398 33.8874 25.968 33.8969 25.8938 33.8993C25.6976 33.9113 25.5013 33.9089 25.3051 33.8969C25.195 33.8898 24.9581 33.806 25.2357 33.8969C25.1472 33.8682 25.0395 33.8658 24.9485 33.8443C24.7667 33.806 24.5848 33.7558 24.4077 33.6959C24.3335 33.672 24.2641 33.6409 24.19 33.6146C24.0703 33.5739 24.3 33.6576 24.3 33.6624C24.2929 33.6457 24.1589 33.5954 24.1325 33.5835C23.9913 33.5141 23.8549 33.4375 23.7209 33.3561C23.6515 33.3131 23.5821 33.27 23.5151 33.2245C23.4697 33.1934 23.2304 33.0067 23.3883 33.1384C23.5462 33.27 23.3644 33.1192 23.3285 33.0881C23.2711 33.0402 23.216 32.9924 23.161 32.9421C23.0557 32.8488 22.9552 32.7507 22.8571 32.6502C22.6872 32.4779 22.534 32.2912 22.3785 32.107C22.2636 31.9682 22.5603 32.3511 22.4598 32.2123C22.4335 32.1764 22.4048 32.1405 22.3785 32.1046C22.333 32.0448 22.2899 31.9825 22.2468 31.9227C21.6701 31.1115 20.7632 30.475 19.7175 30.8004C18.8512 31.0708 18.5114 31.8102 18.217 32.5856C18.0711 32.9685 17.9395 33.3561 17.8031 33.7414C17.7265 33.9568 17.6475 34.1721 17.5661 34.3851C17.5231 34.5 17.4776 34.6172 17.4321 34.7321C17.413 34.7824 17.3915 34.8326 17.3723 34.8829C17.358 34.9164 17.3436 34.9499 17.3316 34.9834C17.2718 35.1317 17.3819 34.8637 17.3891 34.8494C17.1498 35.3136 16.9607 35.797 16.6975 36.2493C16.5611 36.4862 16.4151 36.7159 16.2596 36.9408C16.2213 36.9983 16.1806 37.0533 16.1399 37.1083C16.1232 37.1323 16.104 37.1538 16.0873 37.1801C16.0227 37.2759 16.1926 37.0509 16.1854 37.0557C16.0968 37.094 15.9892 37.2974 15.9198 37.374C15.7355 37.5845 15.5393 37.7832 15.3287 37.9674C15.276 38.0153 15.221 38.0608 15.1684 38.1038C15.1301 38.1349 14.9578 38.2713 15.1229 38.1421C15.2976 38.0057 15.087 38.166 15.0463 38.1948C14.9793 38.2426 14.9099 38.2881 14.8405 38.3336C14.5988 38.4891 14.3476 38.6207 14.0891 38.7404C13.8546 38.8481 14.2973 38.6638 14.1035 38.7332C14.0413 38.7547 13.979 38.781 13.9168 38.8026C13.7541 38.86 13.5914 38.9079 13.4263 38.951C13.2779 38.9892 13.1247 39.0227 12.974 39.0515C12.9261 39.061 12.6294 39.1017 12.8424 39.0754C13.0553 39.0491 12.7538 39.085 12.7012 39.0897C12.3327 39.1256 11.9617 39.1328 11.5932 39.1161C11.4401 39.1089 11.2893 39.0969 11.1386 39.0826C10.8466 39.0562 11.3563 39.1209 11.1481 39.085C11.0596 39.0706 10.9687 39.0562 10.8801 39.0395C10.5882 38.9845 10.2986 38.9079 10.0138 38.8146C9.87984 38.7691 9.74822 38.7188 9.61661 38.6686C9.43235 38.5968 9.87027 38.7882 9.63575 38.6734C9.55918 38.6351 9.48021 38.6016 9.40363 38.5633C9.14519 38.4341 8.89632 38.2881 8.65462 38.1278C8.53019 38.044 8.41293 37.9459 8.2885 37.8645C8.27653 37.8574 8.49908 38.0344 8.40336 37.9531C8.37943 37.9315 8.35311 37.9124 8.32678 37.8932C8.25978 37.8382 8.19278 37.7832 8.12816 37.7257C7.89604 37.5247 7.67589 37.3094 7.46531 37.0844C7.36719 36.9791 7.26908 36.869 7.17575 36.759C7.13268 36.7063 7.0896 36.6561 7.04653 36.6034C7.01781 36.5699 6.82398 36.321 6.94842 36.4838C7.07285 36.6465 6.90774 36.4287 6.87663 36.3857C6.83595 36.3306 6.79527 36.2732 6.75458 36.2182C6.65408 36.0746 6.55597 35.931 6.46025 35.7826C6.0989 35.2251 5.78063 34.6412 5.49587 34.0429C5.42647 33.8969 5.35947 33.751 5.29246 33.6026C5.25657 33.5212 5.22307 33.4423 5.18717 33.3609C5.17281 33.3274 5.12017 33.203 5.18717 33.3657C5.26614 33.5547 5.16803 33.3202 5.16085 33.2987C5.02923 32.978 4.90719 32.6574 4.78993 32.3319C4.54824 31.6547 4.33287 30.9703 4.14143 30.2763C3.75137 28.8693 3.45225 27.4382 3.20816 25.9977C3.15073 25.6579 3.09569 25.3157 3.04544 24.9735C3.01912 24.7988 2.99279 24.6241 2.96886 24.4494C2.95929 24.3752 2.94733 24.301 2.93775 24.2268C2.93057 24.179 2.92579 24.1287 2.91861 24.0785C2.93775 24.1909 2.94972 24.3226 2.92579 24.1335C2.79657 23.138 2.69127 22.1378 2.62427 21.1351C2.5118 19.4432 2.51419 17.7466 2.65299 16.0571C2.68649 15.6599 2.72478 15.2627 2.77264 14.8654C2.79417 14.6812 2.8181 14.4993 2.83964 14.315C2.84921 14.248 2.88032 14.0853 2.83007 14.3797C2.83725 14.3366 2.84203 14.2959 2.84682 14.2528C2.86357 14.1404 2.87793 14.0279 2.89468 13.913C2.99997 13.1999 3.12441 12.4916 3.28474 11.788C3.44507 11.0845 3.64847 10.3331 3.88059 9.61998C4.00264 9.24907 4.13425 8.88294 4.27783 8.51921C4.30894 8.44024 4.34005 8.36366 4.37116 8.28469C4.47645 8.02864 4.31133 8.4187 4.39748 8.22247C4.47645 8.043 4.55542 7.86592 4.63918 7.68884C4.96462 7.00205 5.33554 6.33919 5.76388 5.71222C5.87157 5.55428 5.98404 5.40352 6.09651 5.25037C6.17548 5.14508 6.03429 5.33173 6.03429 5.33173C6.06301 5.3078 6.08694 5.26712 6.11087 5.23601C6.17787 5.15226 6.24727 5.0709 6.31667 4.98954C6.56075 4.70716 6.8192 4.43675 7.092 4.18549C7.21883 4.06823 7.34805 3.95576 7.48206 3.84808C7.51316 3.82415 7.54427 3.80022 7.57538 3.77389C7.67828 3.68774 7.48924 3.84329 7.48924 3.8409C7.50838 3.78586 7.69503 3.69253 7.74529 3.65664C8.0492 3.44605 8.36986 3.257 8.70009 3.09428C8.7982 3.04642 8.89871 2.99856 8.99922 2.95309C9.21219 2.85498 9.05904 2.92677 9.01357 2.94592C9.06383 2.92677 9.11408 2.90523 9.16433 2.88609C9.39406 2.79755 9.62857 2.71858 9.86787 2.64918C10.1072 2.57979 10.3345 2.52475 10.5714 2.47928C10.6719 2.46014 10.7724 2.44578 10.8729 2.42663C11.0117 2.39792 10.8203 2.43142 10.8059 2.43381C10.8897 2.42424 10.9734 2.41467 11.0572 2.40749C11.5047 2.36442 11.9546 2.35963 12.4021 2.39313C12.5169 2.4027 12.6318 2.41706 12.7467 2.42663C12.8878 2.4386 12.6844 2.41467 12.6749 2.41706C12.7347 2.41706 12.8113 2.4386 12.8711 2.44817C13.1008 2.48646 13.3281 2.53671 13.5531 2.59414C13.7637 2.64679 13.9719 2.70901 14.1777 2.77841C14.2901 2.81669 14.4002 2.85498 14.5103 2.89566C14.5821 2.92199 14.9171 3.06796 14.6946 2.96745C15.1205 3.16128 15.5321 3.37187 15.9317 3.61595C16.1399 3.74278 16.3433 3.87679 16.5419 4.01559C16.6233 4.07302 16.7023 4.13045 16.7812 4.18788C16.8195 4.2166 16.8602 4.24771 16.8985 4.27642C16.6951 4.12806 16.8841 4.26685 16.9248 4.30035C17.267 4.57555 17.5973 4.86988 17.9107 5.17858C18.2434 5.50164 18.5592 5.84144 18.8632 6.19321C19.0067 6.35833 19.1479 6.52823 19.2867 6.69813C19.3633 6.79146 19.4375 6.88479 19.5117 6.97812C19.5212 6.99008 19.6289 7.12648 19.5452 7.02119C19.4518 6.90154 19.6241 7.12648 19.6433 7.14802C20.5359 8.32537 21.3064 9.60563 22.345 10.6657C23.484 11.8287 25.0347 12.6615 26.6739 12.0369C28.2174 11.4482 29.2583 10.1393 30.182 8.8303C30.5601 8.29426 30.9215 7.74866 31.3091 7.2222C31.4288 7.05948 31.1225 7.45672 31.29 7.24852C31.3115 7.2222 31.3307 7.19827 31.3522 7.17195C31.4575 7.03794 31.5604 6.90393 31.6657 6.76753C31.7088 6.71249 31.8882 6.47798 31.7327 6.67899C31.5771 6.88 31.7925 6.60242 31.8404 6.54259C32.161 6.13817 32.4961 5.74811 32.8526 5.37959C33.0752 5.14987 33.3049 4.92732 33.5442 4.71673C33.6638 4.61144 33.7835 4.50615 33.9079 4.40564C33.9342 4.38411 34.1089 4.23335 34.1137 4.24053C34.1185 4.24292 33.9175 4.38411 34.0252 4.30992C34.0778 4.27164 34.1305 4.23095 34.1831 4.19267C34.8149 3.73082 35.4873 3.3623 36.1956 3.02967C36.3201 2.97224 36.1238 3.05839 36.1191 3.06078C36.1526 3.03685 36.2076 3.02488 36.2459 3.00813C36.3464 2.96745 36.4493 2.92916 36.5498 2.89088C36.7604 2.8143 36.9734 2.7449 37.1863 2.68269C37.4663 2.60132 37.7511 2.53193 38.0382 2.48167C38.0957 2.4721 38.1531 2.46253 38.2105 2.45296C38.2488 2.44578 38.2895 2.44339 38.3254 2.43621C38.3493 2.43142 38.0239 2.46971 38.1531 2.46014C38.3015 2.44817 38.4498 2.42903 38.6006 2.41706C38.8782 2.39792 39.1534 2.39313 39.431 2.4027C39.5674 2.40749 39.7038 2.41467 39.8402 2.42663C39.9144 2.43381 39.9885 2.4386 40.0627 2.44817C40.0938 2.45056 40.1273 2.45535 40.1584 2.46014C40.3666 2.48167 39.9144 2.42185 40.0651 2.44817C40.3571 2.49842 40.6466 2.54868 40.9338 2.62286C41.2401 2.70183 41.5416 2.79755 41.8383 2.91241C41.9029 2.93634 41.9652 2.96984 42.0322 2.98899C41.7019 2.88609 41.9484 2.95549 42.0322 2.99378C42.1925 3.06796 42.3528 3.14693 42.5084 3.23068C42.7979 3.38623 43.0779 3.56092 43.3483 3.75236C43.3818 3.77629 43.5397 3.91747 43.5613 3.9079C43.5613 3.9079 43.3722 3.75475 43.4703 3.83611C43.4991 3.86004 43.5302 3.88397 43.5613 3.9079C43.712 4.02994 43.8604 4.15916 44.0016 4.29078C44.2696 4.53965 44.5233 4.80527 44.7602 5.08525C44.8248 5.15944 44.8846 5.23841 44.9492 5.31259C45.0354 5.41549 44.8966 5.24319 44.8942 5.23841C44.9301 5.28148 44.966 5.33173 44.9995 5.3772C45.1215 5.54471 45.2412 5.71461 45.3536 5.8893C45.8538 6.65985 46.2486 7.495 46.6147 8.33495C46.6459 8.40434 46.7655 8.69389 46.677 8.47852C46.7152 8.57424 46.7559 8.66757 46.7942 8.76329C46.8828 8.98345 46.9665 9.2036 47.0479 9.42615C47.1962 9.83535 47.3326 10.2493 47.4571 10.6657C47.7227 11.5655 47.9213 12.482 48.0721 13.4081C48.1726 14.0279 48.9742 14.4275 49.5438 14.2433C50.2162 14.0255 50.4866 13.4344 50.3789 12.7716L50.3837 12.7692Z" fill="black"/>
<path d="M96.3662 27.3616C96.1867 27.9263 95.9857 28.4839 95.7632 29.0343C95.7345 29.1061 95.6172 29.331 95.7728 29.0151C95.7416 29.0798 95.7153 29.1468 95.6866 29.2138C95.6292 29.3454 95.5693 29.4746 95.5095 29.6062C95.3899 29.8623 95.2654 30.1159 95.1338 30.3672C94.8754 30.8577 94.5954 31.3387 94.2891 31.803C94.1503 32.0136 94.0067 32.2194 93.8584 32.4204C93.8009 32.4993 93.497 32.8535 93.7578 32.5592C93.6693 32.6597 93.588 32.7721 93.5018 32.8774C93.1548 33.2986 92.7839 33.6982 92.3914 34.0787C92.2096 34.2534 92.0253 34.4233 91.8339 34.5908C91.7286 34.6818 91.6233 34.7703 91.518 34.8588C91.4654 34.9019 91.4103 34.9474 91.3553 34.9905C91.2859 35.0455 91.0155 35.213 91.3218 35.0192C90.8623 35.3111 90.4364 35.6581 89.9697 35.9429C89.4624 36.2516 88.9384 36.5339 88.4023 36.79C88.2635 36.857 88.1247 36.9216 87.9836 36.9838C87.9118 37.0149 87.8424 37.046 87.7706 37.0771C87.7419 37.0891 87.5073 37.1657 87.6988 37.1083C87.8902 37.0508 87.6509 37.1274 87.6246 37.1394C87.5504 37.1681 87.4786 37.1992 87.4044 37.2279C87.2298 37.2973 87.0551 37.3619 86.878 37.4265C86.2606 37.6515 85.636 37.8477 85.0019 38.02C84.3247 38.2066 83.6403 38.3646 82.9511 38.501C82.5802 38.5752 82.2069 38.6422 81.8335 38.702C81.7019 38.7235 81.5703 38.7451 81.4387 38.7642C81.3621 38.7762 81.2856 38.7857 81.209 38.7977C81.1563 38.8049 81.1061 38.8121 81.0534 38.8192C80.9218 38.8384 80.9505 38.8336 81.1372 38.8073C81.0032 38.7834 80.7974 38.8504 80.6586 38.8671C80.5198 38.8839 80.3882 38.8982 80.2518 38.9126C79.888 38.9509 79.5267 38.9844 79.163 39.0131C78.4881 39.0657 77.8133 39.0992 77.1385 39.1184C75.65 39.1567 74.1592 39.116 72.6779 38.982C72.331 38.9509 71.9864 38.915 71.6418 38.8719C71.5484 38.8599 71.4527 38.8527 71.3594 38.836C71.6729 38.8886 71.357 38.836 71.302 38.8288C71.1153 38.8025 70.9263 38.7738 70.7396 38.7427C69.9978 38.623 69.2583 38.477 68.5285 38.2976C67.7986 38.1181 67.1046 37.9147 66.4107 37.6706C66.0996 37.5605 65.7909 37.4409 65.4846 37.3188C65.1998 37.2064 65.7191 37.4241 65.4415 37.3021C65.3602 37.2662 65.2788 37.2303 65.1974 37.1944C65.0108 37.1106 64.8241 37.0221 64.6399 36.9312C64.0057 36.6153 63.3883 36.2659 62.7901 35.8854C62.491 35.694 62.1966 35.4954 61.9094 35.2872C61.7922 35.2034 61.6773 35.1149 61.5601 35.0287C61.3232 34.8517 61.7611 35.1915 61.5314 35.0048C61.4428 34.933 61.3543 34.8636 61.2657 34.7918C60.7536 34.3707 60.2655 33.9208 59.806 33.4398C59.6026 33.2268 59.404 33.0067 59.2101 32.7841C59.1073 32.6621 59.0044 32.54 58.9038 32.4156C58.8608 32.3606 58.7842 32.2935 58.7555 32.2289C58.8608 32.4611 58.8201 32.3127 58.7507 32.2194C58.0017 31.2215 57.3699 30.1398 56.8578 29.0032C56.8267 28.9314 56.7956 28.862 56.7645 28.7902L56.7334 28.7184C56.7063 28.6546 56.7063 28.6546 56.7334 28.7184L56.7645 28.7902C56.7454 28.7423 56.7238 28.6945 56.7047 28.6466C56.676 28.5748 56.6472 28.503 56.6185 28.4312C56.4941 28.1178 56.3792 27.7995 56.2739 27.4788C56.0825 26.9069 55.9174 26.3278 55.7714 25.7439C55.6183 25.1241 55.4914 24.4996 55.3861 23.8702C55.3598 23.7123 55.3335 23.5519 55.3096 23.394C55.2976 23.3126 55.2234 23.0685 55.2521 22.9944L55.2737 23.1523C55.2665 23.0997 55.2593 23.0446 55.2521 22.992C55.2426 22.9106 55.233 22.8316 55.221 22.7503C55.1995 22.5612 55.1779 22.3722 55.1588 22.1831C55.0176 20.7976 54.9482 19.4001 54.9602 18.0074C54.9674 17.1435 55.0057 16.282 55.0798 15.4205C55.1133 15.0257 55.154 14.6332 55.2019 14.2408C55.2067 14.2049 55.2521 13.8507 55.2138 14.1331C55.2282 14.0278 55.2426 13.9201 55.2593 13.8148C55.2928 13.5851 55.3287 13.3578 55.3694 13.128C55.647 11.5151 56.0634 9.91663 56.6736 8.39468C56.7095 8.30135 56.7454 8.21042 56.786 8.11949C56.6544 8.41861 56.7741 8.15059 56.798 8.09556C56.8554 7.96873 56.9129 7.83951 56.9727 7.71507C57.1282 7.38962 57.2934 7.06896 57.4728 6.75787C57.6236 6.49703 57.7815 6.24338 57.949 5.9945C58.04 5.8605 58.1333 5.72888 58.229 5.59727C58.2434 5.57812 58.4109 5.37472 58.2817 5.52548C58.1524 5.67624 58.3654 5.42258 58.387 5.39625C58.588 5.15217 58.8033 4.91766 59.0283 4.69511C59.1216 4.60417 59.2173 4.51324 59.313 4.4247C59.3896 4.3553 59.6313 4.07293 59.7318 4.07053L59.6122 4.16147C59.6529 4.13036 59.6959 4.09925 59.7366 4.06814C59.7988 4.02267 59.8634 3.97721 59.928 3.93413C60.0357 3.85995 60.1434 3.79055 60.2559 3.72116C60.3899 3.63979 60.5263 3.56322 60.6627 3.48904C60.7632 3.43639 61.048 3.23298 61.1604 3.24974L61.0216 3.30956C61.0719 3.29042 61.1198 3.26888 61.17 3.25213C61.2203 3.23298 61.2705 3.21384 61.3208 3.19709C61.4739 3.14205 61.6271 3.09419 61.7826 3.04872C62.0698 2.96736 62.4574 2.82139 62.7566 2.84293C62.4503 2.82139 62.6848 2.8525 62.7781 2.84293C62.8643 2.83335 62.9528 2.82618 63.0389 2.82139C63.2184 2.80942 63.3979 2.80464 63.5798 2.80225C63.9531 2.80225 64.3216 2.82857 64.6925 2.86207C65.0012 2.89079 64.4269 2.81421 64.7308 2.86686C64.8169 2.88121 64.9055 2.89557 64.9916 2.90993C65.1496 2.93865 65.3051 2.97215 65.4607 3.01044C65.8052 3.09419 66.1451 3.19948 66.4753 3.32392C66.5351 3.34785 66.8079 3.434 66.4992 3.3287C66.5638 3.35024 66.626 3.38374 66.6883 3.41246C66.8271 3.47468 66.9635 3.54168 67.0975 3.61347C67.4133 3.77859 67.7196 3.96524 68.0116 4.16865C68.1217 4.24522 68.2461 4.31941 68.3442 4.41034C68.1097 4.19497 68.3107 4.38641 68.361 4.42709C68.4256 4.47974 68.4878 4.53238 68.55 4.58742C68.8013 4.80518 69.043 5.0373 69.2727 5.2766C69.5024 5.5159 69.725 5.77913 69.9403 6.04236C70.0744 6.20748 69.9332 6.02801 69.9116 6.00168C69.9667 6.06869 70.0169 6.13808 70.0672 6.20748C70.2012 6.38935 70.3304 6.576 70.4548 6.76744C70.6535 7.07375 70.8353 7.38962 71.0028 7.71507C71.0914 7.88737 71.1775 8.06445 71.2589 8.24153C71.2996 8.33007 71.3379 8.41861 71.3761 8.50715C71.2565 8.22717 71.4144 8.61244 71.436 8.6627C71.6872 9.31598 71.8859 9.98842 72.039 10.6704C72.1132 11.0007 72.1778 11.3333 72.2304 11.6659C72.2496 11.788 72.2448 11.9483 72.2903 12.0631C72.1874 11.7975 72.2735 11.9315 72.2879 12.0536C72.2998 12.1541 72.3118 12.2546 72.3214 12.3551C72.374 12.8792 72.4051 13.4032 72.4147 13.9297C72.441 15.5737 72.2807 17.2392 72.5176 18.8736C72.6253 19.6202 72.8718 20.4147 73.2882 21.0512C73.8146 21.8553 74.5588 22.3506 75.5184 22.4631C76.1789 22.5421 76.9183 22.3961 77.4759 22.0228C78.1675 21.561 78.5815 20.867 78.8399 20.0893C79.2994 18.7037 79.2252 17.1507 79.1749 15.7101C79.1199 14.1427 79.1414 12.5633 79.3185 11.0007C79.3305 10.9001 79.3377 10.7996 79.3544 10.6991C79.3042 10.9983 79.3592 10.668 79.3664 10.6202C79.3903 10.4574 79.4166 10.2947 79.4453 10.132C79.5195 9.71801 79.6057 9.30641 79.7134 8.902C79.8019 8.56698 79.9 8.23674 80.0149 7.9089C80.0771 7.73421 80.1417 7.56192 80.2111 7.38962C80.2925 7.18382 80.2087 7.38484 80.1967 7.42073C80.2326 7.30826 80.2972 7.19579 80.3475 7.0881C80.503 6.76266 80.6777 6.44439 80.8716 6.13569C80.9529 6.00886 81.0367 5.88203 81.1204 5.7576C81.1707 5.68341 81.2233 5.61162 81.276 5.53744C81.3119 5.48719 81.532 5.15696 81.3549 5.42736C81.7091 4.88655 82.2523 4.39598 82.7453 3.98439C82.7979 3.94131 82.8506 3.90063 82.9008 3.85756C83.0348 3.74509 82.6615 4.02985 82.8817 3.87431C83.0109 3.78098 83.1401 3.69005 83.2717 3.60151C83.535 3.42921 83.8078 3.27127 84.0901 3.13248C84.1595 3.09658 84.2313 3.06308 84.3031 3.03197L84.3749 2.99847C84.4946 2.94583 84.4706 2.9554 84.3055 3.02479C84.3534 2.94822 84.6621 2.886 84.7482 2.85728C85.0521 2.75199 85.3608 2.66584 85.6719 2.59884C85.8322 2.56295 85.9926 2.53423 86.1529 2.50791C86.2319 2.49594 86.4951 2.49116 86.1625 2.50312C86.2175 2.50312 86.275 2.48876 86.33 2.48398C86.7009 2.4433 87.0742 2.42654 87.4475 2.42654C87.773 2.42654 88.1008 2.4409 88.4263 2.46962C88.498 2.4768 88.6177 2.46962 88.6847 2.49594L88.5363 2.4744C88.5914 2.48158 88.6488 2.49116 88.7038 2.49833C88.8809 2.52705 89.058 2.56055 89.2351 2.60123C89.5366 2.66824 89.8333 2.75199 90.1277 2.85489C90.1827 2.87404 90.5584 2.97454 90.568 3.0224C90.568 3.0224 90.2904 2.89797 90.4962 2.99369C90.5895 3.03676 90.6828 3.07983 90.7762 3.1253C91.0514 3.2617 91.317 3.41246 91.573 3.57997C91.6783 3.64937 91.7836 3.72116 91.8865 3.79295C91.9033 3.80491 92.0612 3.93413 92.0708 3.92695C91.9296 3.81688 91.9081 3.80013 92.0086 3.87909C92.0492 3.9102 92.0875 3.94131 92.1258 3.97481C92.5996 4.36487 93.0304 4.80279 93.4228 5.27182C93.4563 5.3125 93.4898 5.35079 93.5209 5.39147C93.5879 5.47283 93.7459 5.57094 93.5257 5.39147C93.6358 5.48001 93.722 5.6547 93.8033 5.76956C93.9852 6.02801 94.1599 6.29363 94.3226 6.56404C94.6576 7.11682 94.9567 7.69114 95.2248 8.27982C95.2918 8.42579 95.3731 8.57655 95.4234 8.7297C95.3157 8.39947 95.4593 8.82063 95.4904 8.902C95.6244 9.23462 95.7488 9.57203 95.8661 9.91184C96.2442 10.9983 96.5553 12.1062 96.7754 13.2357C96.8352 13.5444 96.8903 13.8507 96.9405 14.1618C96.9621 14.3006 96.9836 14.4418 97.0051 14.5806C97.0171 14.6667 97.0291 14.7529 97.0434 14.8414C97.0626 14.9754 97.0602 14.9587 97.0363 14.7888C97.0434 14.8486 97.053 14.9084 97.0602 14.9706C97.1607 15.7555 97.2349 16.5428 97.2851 17.3325C97.3952 19.077 97.3832 20.8263 97.2444 22.5684C97.2109 22.9704 97.1727 23.3748 97.1248 23.7745C97.1128 23.8846 97.0985 23.9946 97.0841 24.1047C97.12 23.8343 97.0698 24.198 97.065 24.2268C97.0315 24.4469 96.998 24.6671 96.9597 24.8872C96.8137 25.72 96.6199 26.5456 96.3662 27.3544C96.1796 27.9526 96.5864 28.6873 97.2014 28.8261C97.8523 28.9745 98.4721 28.6299 98.6731 27.9909C99.233 26.201 99.501 24.3249 99.647 22.4607C99.793 20.5966 99.7882 18.8329 99.659 17.0214C99.4628 14.303 99.0153 11.6133 98.094 9.04318C97.1727 6.4731 95.8828 3.95567 93.7602 2.2375C92.6499 1.33773 91.3864 0.65812 89.9889 0.3231C88.498 -0.0334567 86.9402 -0.0454217 85.435 0.213022C82.5395 0.710766 80.1321 2.66106 78.6628 5.15695C76.9518 8.06445 76.7125 11.6324 76.758 14.93C76.7676 15.5737 76.8011 16.215 76.8059 16.8587C76.8082 17.2009 76.8059 17.5407 76.7867 17.8829C76.7771 18.0696 76.7652 18.2562 76.746 18.4429C76.7389 18.5051 76.7269 18.8138 76.746 18.4883C76.7389 18.6032 76.7101 18.7229 76.6886 18.8353C76.6527 19.0148 76.6096 19.1919 76.557 19.3642C76.5307 19.4479 76.5019 19.5269 76.4732 19.6107C76.3823 19.8763 76.6001 19.3857 76.4661 19.6178C76.3991 19.7351 76.2962 19.8619 76.2435 19.984C76.3368 19.771 76.3823 19.8212 76.3057 19.8954C76.2483 19.9505 76.1741 20.0079 76.1239 20.0677C76.3081 19.8547 76.2818 19.9505 76.1669 20.0199C76.0521 20.0893 75.9468 20.0677 76.2363 20.0031C76.1263 20.027 75.9827 20.0605 75.8798 20.1012C76.1406 20.0007 76.088 20.0797 75.9372 20.0869C75.8534 20.0917 75.7721 20.0869 75.6907 20.0869C75.4155 20.0869 75.9228 20.1682 75.6812 20.0797C75.6309 20.0677 75.5806 20.051 75.5328 20.0342C75.7003 20.1084 75.7266 20.1204 75.6118 20.0629C75.5878 20.0486 75.449 19.9433 75.4251 19.9457C75.5447 19.9313 75.607 20.1228 75.473 19.9696C75.4586 19.9529 75.3605 19.8356 75.3485 19.8356L75.4442 19.9624C75.4155 19.9217 75.3868 19.8811 75.3581 19.8404C75.2743 19.7136 75.2073 19.5772 75.1379 19.4432C75.2289 19.7016 75.0135 19.2015 75.1379 19.4432C75.1044 19.345 75.0661 19.2493 75.035 19.1512C74.9704 18.955 74.9178 18.7564 74.8795 18.553C74.8723 18.5195 74.8245 18.1653 74.858 18.4429C74.846 18.3352 74.8364 18.2251 74.8268 18.1174C74.7933 17.6699 74.7933 17.2224 74.791 16.775C74.7886 15.4205 74.8603 14.0661 74.7503 12.714C74.6402 11.362 74.3913 9.89509 73.939 8.55501C73.3911 6.93256 72.575 5.46565 71.479 4.1495C69.5311 1.81633 66.7313 0.41882 63.6779 0.402069C62.1583 0.392497 60.6531 0.749053 59.3226 1.48849C58.0759 2.18007 57.066 3.18513 56.2141 4.31462C55.3287 5.49197 54.697 6.84162 54.1849 8.2176C53.5986 9.79937 53.2085 11.4505 52.9596 13.1161C52.481 16.3011 52.4451 19.5437 52.8304 22.7407C53.1559 25.4472 53.7804 28.0843 54.9578 30.5562C57.4776 35.8448 62.546 39.3505 68.1671 40.6642C71.1823 41.3678 74.3219 41.5975 77.4113 41.497C80.3044 41.4013 83.2287 41.0256 86.0141 40.2168C88.5435 39.4821 90.9293 38.3574 92.9969 36.7182C94.7988 35.2896 96.2585 33.4278 97.2995 31.3794C97.8523 30.293 98.3069 29.1515 98.6755 27.9909C98.8669 27.3951 98.4529 26.658 97.8403 26.5192C97.187 26.3709 96.572 26.7155 96.3686 27.3544L96.3662 27.3616Z" fill="black"/>
</svg>
